<svg width="16" height="14" viewBox="0 0 16 14" fill="none" xmlns="http://www.w3.org/2000/svg">
<path d="M14.375 5.7512H3.00917L6.48792 1.57287C6.65058 1.37716 6.72884 1.12485 6.70548 0.87144C6.68211 0.618031 6.55904 0.384283 6.36333 0.221617C6.16763 0.0589506 5.91531 -0.0193087 5.66191 0.00405519C5.4085 0.0274191 5.17475 0.150493 5.01208 0.3462L0.220417 6.0962C0.188179 6.14194 0.159351 6.18998 0.134167 6.23995C0.134167 6.28787 0.134167 6.31662 0.0670835 6.36453C0.0236456 6.47441 0.000901908 6.59138 0 6.70953C0.000901908 6.82769 0.0236456 6.94465 0.0670835 7.05453C0.0670835 7.10245 0.0670832 7.1312 0.134167 7.17912C0.159351 7.22908 0.188179 7.27713 0.220417 7.32287L5.01208 13.0729C5.10219 13.181 5.21502 13.268 5.34256 13.3277C5.4701 13.3873 5.60921 13.4181 5.75 13.4179C5.97392 13.4183 6.19092 13.3403 6.36333 13.1975C6.46037 13.117 6.54059 13.0182 6.59938 12.9067C6.65818 12.7952 6.6944 12.6732 6.70597 12.5477C6.71755 12.4222 6.70424 12.2956 6.66682 12.1752C6.62941 12.0548 6.56861 11.943 6.48792 11.8462L3.00917 7.66787H14.375C14.6292 7.66787 14.8729 7.5669 15.0526 7.38718C15.2324 7.20745 15.3333 6.9637 15.3333 6.70953C15.3333 6.45537 15.2324 6.21161 15.0526 6.03189C14.8729 5.85217 14.6292 5.7512 14.375 5.7512Z" fill="white"/>
</svg>
