<svg width="15" height="28" viewBox="0 0 15 28" fill="none" xmlns="http://www.w3.org/2000/svg">
<path d="M0.536017 27.5221C0.697788 27.6385 0.87942 27.6918 1.06142 27.6762C1.24341 27.6606 1.4189 27.5767 1.56905 27.4335L14.5695 14.9774C14.7023 14.85 14.8109 14.6799 14.8859 14.4818C14.9608 14.2837 15 14.0634 15 13.8397C15 13.616 14.9608 13.3957 14.8859 13.1976C14.8109 12.9994 14.7023 12.8294 14.5695 12.702L1.56905 0.245888C1.41902 0.102217 1.24345 0.018086 1.06135 0.00260439C0.879247 -0.0128772 0.697556 0.0408807 0.535947 0.158057C0.374338 0.275234 0.238971 0.451364 0.144502 0.667376C0.0500325 0.883389 6.15853e-05 1.13105 1.35836e-08 1.38355V26.2958C-3.00684e-05 26.5485 0.0499047 26.7963 0.144392 27.0125C0.238879 27.2286 0.374314 27.4049 0.536017 27.5221Z" fill="#CC4125"/>
</svg>
